<?xml version="1.0" encoding="UTF-8" standalone="no"?><svg xmlns="http://www.w3.org/2000/svg" xmlns:xlink="http://www.w3.org/1999/xlink" fill="#000000" height="1295.7" preserveAspectRatio="xMidYMid meet" version="1" viewBox="647.2 1859.7 3849.5 1295.7" width="3849.5" zoomAndPan="magnify"><g id="change1_1"><path d="M892,2424.4c0.9-5.9,1.8-11.7,2.9-19.4c-14.3-0.1-28.8-0.2-44.1-0.3c3.1-11.7,13.7-11.2,21.6-11.8 c16.4-1.2,29.8-5.2,35.9-19.4c44.1,6.3,84.6,4.8,116.9-23.9c-9.6-21.7-39.3-10.3-56.6-21.9c9.6-7.5,20.3-4.2,29.3-5.9 c9.7-1.9,19.6-3.4,31-5.3c-8.7-5.5-8.7-5.7-26.9-7.5c-9.1-0.9-13.1-5-13.8-11.7c-0.5-4.7,2.7-8.1,8.6-8.4c4.9-0.2,10.1,0.6,14.7,1.8 c22.7,6.2,43.4,2.2,59.9-11.6c12.8-10.7,27.6-14.6,44.5-16c20.3-1.7,40.7-3.1,61-4.9c40.6-3.7,81.3-7.1,121.7-11.8 c13.6-1.6,27.7-5.2,39.8-10.4c15.6-6.8,30.9-9,47.9-8.4c9.9,0.3,21.3,0.7,29.9-2.6c21.6-8.3,44.1-10.8,66.9-13.1 c10.2-1.1,19.8-2.7,28-9c4.3-3.3,11-5.9,16.8-6.6c19.8-2.3,31.5-12.2,42.3-24.6c7.1-8.2,17.1-14.7,28.8-24.6c-0.6,1.9,0.1,0,0.6-1.9 c3.6-11.5-6.7-27.8,7.8-33.8c19.8-8.2,43.8-13.8,66.1-6c19,6.7,37.9,10.2,58.8,5.6c2.4-0.5,4.6-1.7,7.6-2.9c0-4.3,0-8.8-0.1-14.6 c5.4,0.4,10.4,0.4,15.1,1.3c6.1,1.1,12,4.3,18,4.2c36.8-0.6,73.3,3.8,110.3-0.4c14-1.6,23.1-7.7,30.2-16 c34.5,4.1,34.5,4.1,109.2-11.9c16.2-22.6,16.3-22.9,45.5-17.5c10.9,2,20,0.7,28.9-4.4c9.4-5.4,18.6-11,27.9-16.6 c0,0-0.8,0.6-0.8,0.6c18.6,4.5,37.4,3.8,56.6,0c31.1-6.3,62.7-10.3,91.1-24.4c9.3-4.6,22-5.4,33.3-6.6c30.7-3.1,59.7-8.7,87.1-22.6 c23.1-11.7,51-13.3,77.9-14.9c10.2-0.6,20.4-0.3,30.5,0.1c28.2,1,55.1-2.1,82.4-10.9c35.1-11.3,72.8-12.4,109.5-9.8 c25.7,1.8,51.2,1.5,76-3.4c23.6-4.7,48.5-3.5,70.9-13c3.2-1.4,7.5-1.3,11.3-1.4c62.6-0.3,124.6-9.6,186.9-14.4 c10.2-0.8,20.5-1.8,30.5-1.4c87.9,3.3,175.5-2,263.1-11.9c29.2-3.3,58.3-6.4,87.3-0.8c7.1,1.4,15.2,0.9,22.7,0.1 c52-5.6,103.8-12.2,155.8-17.2c71.2-6.8,142.4-12.4,213.7-18.4c15.3-1.3,30.8-2.2,44.2,4.7c2.6,1.3,5,4.9,4.6,7.1 c-0.5,2.1-4.7,5.1-7.6,5.4c-6.2,0.7-12.6-0.4-18.9-0.1c-29.1,1.2-58.3-1-86.7,9.3c-8.5,3.1-20,2-29.9,1.2 c-9.9-0.8-19.5-3.6-28.5-5.4c-39.2,19.6-82.5,24.5-125.1,29.3c-40.5,4.6-81.4,5.7-121.3,15.1c-13.4,3.1-27.9,3.9-41.8,3.9 c-74.1-0.4-147.7,8.7-221.4,14.5c-35.6,2.8-71.2,6.5-106.8,9.6c-24.1,2-46.9,7.3-74.1,18c9,3.1,12.8,4.7,17,5.7 c3.6,0.8,7.8,0.2,11.3,1.2c34.3,9.8,69.3,7.2,104.6,0.3c9.9-1.9,20.4-3.3,29.1-7.3c12.5-5.7,24.3-6.6,36.5-2.6 c20.6,6.9,41.6,6.6,63.6,2.8c8.4-1.5,17.9-1.1,26,0.6c14.1,3,27.6,1.3,41.5-1c17.6-2.8,35.2-5.8,52.9-7.3c50.1-4.2,50.1-4,90.3,12.2 c3-0.9,7.8-1.2,9.7-3.3c14.2-14.7,32.2-16.1,51.6-10.8c36.7,9.9,75.1,7.3,113.2,6.7c33.1-0.5,66.2-1.3,99.3-2.2 c46.3-1.2,90.9,5.5,135.2,13.6c18.4,3.4,37.4,5.1,55.8,8.5c12.2,2.2,24.8,4.7,35.4,9.4c17,7.6,35.5,10.6,54.5,10.8 c26.6,0.3,53.2,0.4,80-3.9c23.7-3.9,48.2-4.4,72.4-6.1c14-1,28.2-0.2,42-2.1c47.9-6.7,95.7-14.4,143.6-21.4 c13.8-2,27.9-4.1,41.8-4.5c26.7-0.8,53.5-0.4,80.2-0.3c3.5,0,6.9,1.5,10,2.2c1.8,6.8-4.6,6.6-9,7.8c-4.9,1.3-10.5,1.4-14.7,3.5 c-35.4,17.1-74.9,21.3-114,26.9c-15,2.1-29.8,5.8-44.7,8.8c-8.7,1.8-17.4,5-26,5.2c-25.1,0.5-45.8,13-69.8,16.8 c-12.7,2-21,11.3-23.5,24.3c6.4,2,12.7,5.5,19.5,5.9c15.1,1,30.5,0.7,45.8,0.4c21.9-0.3,42.9,1.5,63.3,7.7 c10.2,3.1,22.1,3.1,33.4,3.6c20.2,1,40.4,1.3,59.3,1.9c12.7,20.4,12.7,20.4-3.4,35c-2.6,2.3-6.8,4.2-7.6,6.8 c-4,12-14.9,18.1-29.3,19.5c3,13.2,13.1,15,23.3,15.4c12.6,0.5,25.6-0.8,38.1,0.1c5.4,0.4,12.8,3.4,14.8,7c3.7,6.7-3.8,10.9-10.8,14 c-4.5,2-9.2,3.9-14,5.3c-18.3,5.4-34.3,12.5-48.5,24.4c-10,8.4-26.2,12.2-40.2,18.3c-1,16,6.4,26.2,28.3,28.6 c9.6,1,18.7,4.7,30.4,7.8c-9.6,12.6-25.7,11-37.3,16.7c1.9,6.6,9.7,3.1,14.3,4.7c5.7,2,12,3.3,16.9,6.1c4.7,2.7,7.9,6.9,12.5,11.2 c-23.7,22.6-53,33.7-90.4,38.6c19.1,5.6,19.1,5.4,42.7,3.5c12.5-1,25-1.3,37.2-2c6.7,11.5,9.9,23,18.5,30.3 c8.7,7.4,22.9,10.8,37.2,17.1c-4.2,3.1-7,6.5-10.7,7.6c-23.9,7.4-47.3,15.7-72.3,21.5c-32.5,7.5-63.6,19.4-99.7,30.8 c18.9,8,35.8,1.9,51.1,3.9c14.8,1.9,30.2,3.6,45.1,2.6c16.5-1.2,32.4-1.9,51.6,2.5c-12.5,10.7-22.8,19.5-32.7,28 c2.2,7.5,9.3,6.4,15.2,6.2c15.5-0.6,30,1.2,44.3,6.1c8.8,3,19.4,3.3,29.3,4.3c7.3,0.8,14.7,0.7,20.8,0.9c3.9,6.5,0.2,9.3-4.5,11.1 c-25.6,9.8-50.7,20.7-77.2,28.4c-16.5,4.8-35.1,5.8-52.7,6.3c-19.4,0.5-37.6,1.8-56,8.5c-11.2,4-24.9,5-37.3,4.9 c-72.6-1-145,1.5-216.7,15.4c-14.7,2.8-29.8,4.2-44.4,6.2c-0.3,7,5.7,6.7,10.1,7.9c4.6,1.3,9.2,2.5,16.4,4.4 c-4,4.6-6.4,7.9-9.4,10.8c-4.9,4.7-12.2,9.1-6.2,15.6c5.2,5.6,13.7,4,21.1,2.9c42.7-6.7,85.2-14.7,128.1-19.9 c20.2-2.4,39.7-3.8,58.3-12c9-4,20-2.4,29.3,1.7c12.9,5.6,26,11.1,38.7,16.5c-1.5,8.2-8.9,7.6-14.8,7.4c-29.5-1.1-58.5,2.3-87.5,7.4 c-7.5,1.3-14.9,3.3-22,5.7c-3.2,1-5.7,3.6-8.2,5.2c1,6.5,6.5,6.3,11.3,5.1c15.1-3.8,30-4.1,45.4-2.8c25.2,2.2,50.5,4.1,75.8-2.6 c4.8-1.3,10.1-1,15.2-1.3c36.9-1.8,73.8-3.4,110.7-5.3c19.6-1,30.9,1.5,28.5,7.1c-4.4,10.2-16.5,8.3-25.9,9.7 c-12.6,1.8-25.4,2.8-38.1,3.9c-25.5,2.4-50.5,6.2-74.9,13.5c-26.9,8.1-53.7,10.8-82.3,4.7c-24.5-5.3-50.2-3.3-71.7,13.1 c-5.8,4.3-16.1,5.6-24.6,6.8c-26.4,3.8-53.1,6.3-79.4,10.3c-19.2,2.9-22.3,6.7-22.5,23.1c-0.1,4.7,3.5,9.8-5.3,14.3 c-17.8-5.8-24.5-24-46.9-28.9c-6.2,4.2-12.6,8.9-19.5,13.1c-6.1,3.7-12.6,6.8-22.5,12c7.2,2.1,11.2,4.2,15.4,4.3 c12.5,0.2,25-0.4,43.3-0.8c-8.9,6.8-16.1,10-18,14.4c-2.2,5.1,0.4,11.3,1,18.6c-12.4,2-23.5,3.9-34.6,5.5 c-58,8.1-116.1,15.8-174,24.3c-15.5,2.3-30.1,4.9-43.8-3.1c-9.8-5.7-21.6-5.5-32.9-2.3c-13.9,3.9-27.4,3.4-41.5,2.8 c-13.8-0.5-27.9,1.3-41.7,2.7c-2.9,0.3-5.5,3.2-9.8,5.9c21.2,11.1,46.5-4.9,66.2,6.2c-15.5,12.7-33.3,20-53.6,19.7 c-19.4-0.2-37.3,2.4-56.2,7c-19.1,4.6-40.2,3.4-60.5,3.9c-3.7,0.1-9.4-3.9-10.4-6.9c-1-2.9,1.9-7.7,4.9-10.3c4.1-3.6,9.9-6,14.8-8.8 c-1.9-6.7-7.6-5-12-3.9c-11,2.7-21.9,5.9-33.9,9.2c-2,6.7-2.3,14.1-6.6,19.6c-3.7,4.8-12.2,7.3-18.1,11.2 c-15.1,10-31.3,17.8-50.5,22.2c-10.6,2.4-21.1,8.1-29.4,14.1c-12.3,8.9-26.1,12.9-41.8,14.3c-12.7,1.1-25.4,2.3-38.1,3.6 c-19.7,2-36.6,0.2-52.3-11.3c-18.3-13.3-43.3-14.4-68.1-11.4c-19,2.3-37.9,5.1-56.9,7.3c-24.3,2.9-48.1,3.2-71.4-4 c-7.6-2.3-18.1-3.1-25.8-1c-30.7,8.4-62,13.2-93.6,17.9c-5.8,0.9-11.3,3.6-21.8,7.1c7.6,3.5,11,6.4,14.9,6.7 c11.3,0.9,22.8,0.7,34.2,1.1c17.6,0.6,35.2,1.4,52.8,2.1c0.2,9.2-7.4,9.3-12.9,9.6c-58.5,3.9-117.1,7-175.6,11.5 c-26.6,2.1-53,7.1-79.6,10.3c-12.5,1.5-26.1,4.4-37.6,2.3c-30.4-5.6-60.7-2.3-91.2-0.6c-22.9,1.3-45.8,2.3-68.7,3.6 c-8.9,0.5-18.2,0.2-26.6,2.2c-37.4,8.7-75.8,9.7-113.7,14.7c-32.8,4.4-65.3,10.4-97.9,15.9c-2.1,0.3-3.7,2.6-6.9,4.9 c3.4,4.4,6.9,9,11.7,15.4c-37.6,5.9-73.3,9.4-105.9-7.7c-9-4.7-19-5.3-29.2-3.7c-38.8,6.4-77.7,11.4-115.5,22.9 c-34.6,10.6-71.4,16.7-107.7,22.8c-11.5,1.9-24.3-2.5-38-4.2c4.3-6.1,7.1-10,11.4-16.2c-31-0.1-59.7-3.1-88.8,0 c-6.3,0.7-12.6,2.2-18.6,4c-16.1,4.7-26.4,12.7-24.6,27.4c0.4,2.8-0.8,5.8-1.5,9.9c-19.3,5.7-40.7-3.9-59,6.6 c3.3,17.2,4.1,18.1,20.2,18.4c12.1,0.2,25.2-3,38.2,7c-26.5,4.7-42.5,22.3-68.4,22.8c-12.6,0.2-25.2,2.8-37.8,3.2 c-25.6,0.7-50.8,1.3-74.5,12.1c-12.9,5.9-27.6,6.4-40.5,0.9c-19.7-8.4-38.1-5.8-58.4,1.2c-13.8,4.8-29.7,6.3-44.8,7.8 c-10.1,1-20.2-0.7-26.8-8c1.6-8.9,11.8-9.1,17.6-8c27.7,5.3,48.5-7.6,73.2-16.2c-9-9.1-19.5-6.5-29.1-6.4c-10,0.1-20,0.6-31.5,0.9 c-1.5-4.6-3.2-8.2-3.6-11.8c-0.4-3.7,0.7-7.6,1.4-14.3c-13,3.9-23.2,6.9-33.6,10c-3.5-1.5-7.5-2.4-9.8-4.4 c-4.9-4.4-7.9-10.4-13.5-14c-8.5-5.4-18-12.3-28.2-13.3c-24.5-2.5-49.6-1.8-78.3,0.9c5.1,4.3,6.8,7,9.7,8 c8.5,3.1,14.6,7.7,15.7,15.4c1.3,9.3-0.7,18.4-8.8,25.8c-12.3,11.2-27.8,18.5-46,21.3c-3.1,0.5-9.1-1.3-9.6-2.9 c-0.9-3.4-0.7-8.6,2-10.8c7.1-5.8,15.7-10.4,24.3-15.8c-2.6-10.5-5.3-21.1-8-32.2c-17.7-7-35.6-8.2-55.6-1.2 c-1.6,7.1-3.1,13.8-4.6,20.6c-13.1-0.1-25.4-0.4-37.8-0.3c-21.6,0.3-33.2-4.9-37.8-22c-2.5-9.1-8.1-15.5-15.6-21.5 c5.8-3.4,10.8-6.3,15.1-8.9c-3.2-9-11.2-10.1-18.7-10.1c-38.2,0.3-76.3,0.4-114.5,1.9c-25.3,1-51-0.8-75.9,6.6 c-4.1,1.2-10.1-0.4-14.5-1.8c-10.1-3.3-10.6-12.8-1.2-19.2c2.8-1.9,6.4-3.1,13.7-6.4c-11.5-1.8-19.5-4.4-27.4-3.9 c-15.2,0.9-30.5,3-45.5,5.8c-7.1,1.3-15,4.4-20,8.5c-16.2,13.6-33.9,13-52.6,6.9c-8-2.6-15.6-5.9-22-8.3c-3.2-7.5,0-11.6,7-13.4 c6-1.5,12.5-1.9,18.8-2.6c14-1.5,28.1-2.1,41.9-4.4c11.5-2,29.9,1.4,31-12.1c0.9-11.5-18.2-7-26.8-11.9c-1.9-1.1-3.2-2.8-4.7-4.3 c20.4-10.8,41.8-15.4,96.4-20.6c2.9-9.2-11.2-6.3-13.4-11.8c-2.2-5.6-3.1-11.7-6.1-17.1c-6.2-11.1-18.9-16.2-33.5-16 c-16.4,0.2-33.3,1.6-49.1,5.1c-15.1,3.3-29.3,6.5-45,4.3c-8.5-1.2-17.8-0.4-26.6,0.6c-15.8,1.8-29.8,0.1-43.8-6.1 c-10.4-4.6-23-6.2-36.5-9.7c12.7-10.8,28.8-9.6,43.2-12.4c14.9-2.9,29.7-6.2,43.3-9.1c4-6.8,5.7-13.1,10.5-16.9 c4.9-4,12.9-5.6,20.2-8.4c-5.7-7.8-13.3-13.9-14.7-21c-2.5-12.4-1.4-25.4-1.3-38.2c0-1.1,3.8-2.2,7.9-4.5c6.9,6.4,13.9,12.9,21,19.4 c9.7,8.9,21.5,13.5,37,9.2c14-3.9,26.9-4.3,40.5,1c7.4,2.9,17,2.9,25.7,3.1c16.5,0.3,33-0.2,49.6-0.6c5-0.1,10.4-0.2,15.1-1.5 c23-6.6,46-13.3,68.7-20.7c3-1,5-6.4,5.2-9.8c0.1-1.4-5.3-4-8.6-4.2c-4.9-0.3-10.1,1.1-15.1,1.5c-33,2.3-65.6,1.2-100.6-3 c10.5-6.5,19.3-11.1,26.8-16.8c10.9-8.3-3.7-17,1.5-27.4c3.4-0.7,8.2-2.7,12.6-2.5c13.1,0.7,25.4,0.3,35.9-7.6 c12.5-9.5,22.8-19.7,25.2-33.7c1.5-8.8,3.5-17.5,5.4-27.4c-6.7-2.5-14.8-5.1-22.4-8.4c-5.4-2.4-10.2-5.7-14.9-8.9 c-5.8-4-11.5-7.6-20.1-5.9c-5.6,1.1-11.6,5.6-17-0.6c1.6-13.3,20.9-14,27.6-23.7c-2-3.4-4-6.9-6-10.3c26-11,26-11,64.6-10.2 c0.2-14.4,0.2-14.4-21.3-27.3c-12.4,1.4-20.3,17.5-39.4,8.7c0.3-5.1,0.8-11.6,1.4-20.3c9.3-0.8,17.9-2.6,26.1-2.1 c16.2,1.1,30.4-1.9,43.1-10.2c1.5-1,1.6-3.4,3.1-7.1c-34.8-8.6-72.4,10-107.2-1.2c3.1-16.1,37.2-11.9,30.3-32.9 c-7.8-1.1-16-2.3-24.1-3.5c0.5-3.2-0.1-5.7,1.2-6.8c2.5-2.2,5.9-4,9.3-5.2c5.9-2.1,12.2-3.3,18-5.6c34.7-13.2,67-30.5,104.1-39.5 c2.3-0.5,5-5.2,4.4-7.3c-0.7-2.2-5-5.1-7.9-5c-8.8,0.1-17.6,1.3-26.4,2.5c-9.9,1.4-19.7,3.2-31.9,5.3c-0.8-9.3-1-16.9-2.2-24.3 c-3.6-21.3-12.7-26-38.2-19c-21.9,6.1-43.4,13.2-65.2,19.7C891.4,2424.3,892,2424.4,892,2424.4z" fill="#000000"/></g></svg>