<?xml version="1.0" encoding="UTF-8" standalone="no"?><svg xmlns="http://www.w3.org/2000/svg" xmlns:xlink="http://www.w3.org/1999/xlink" fill="#000000" height="54" preserveAspectRatio="xMidYMid meet" version="1" viewBox="-6.3 -4.1 378.2 54.0" width="378.2" zoomAndPan="magnify"><defs><filter filterUnits="objectBoundingBox" height="900%" id="a" width="114.5%" x="-7.3%" xlink:actuate="onLoad" xlink:show="other" xlink:type="simple" y="-400%"><feGaussianBlur in="SourceGraphic" stdDeviation="8"/></filter><filter filterUnits="objectBoundingBox" height="700%" id="b" width="110.9%" x="-5.4%" xlink:actuate="onLoad" xlink:show="other" xlink:type="simple" y="-300%"><feGaussianBlur in="SourceGraphic" stdDeviation="6"/></filter></defs><g fill="none" fill-rule="evenodd"><g fill="#ffffff" fill-rule="nonzero"><g id="change1_1"><path d="M327.313014,0 C328.969868,0 330.313014,1.34314575 330.313014,3 C330.313014,4.59768088 329.064094,5.90366088 327.489286,5.99490731 L327.313014,6 L3,6 C1.34314575,6 -2.27373675e-13,4.65685425 -2.27373675e-13,3 C-2.27373675e-13,1.40231912 1.24891996,0.0963391206 2.82372721,0.00509269341 L3,0 L327.313014,0 Z" fill="inherit" filter="url(#a)" transform="translate(17.857 19.912)"/><path d="M327.313014,0 C328.969868,0 330.313014,1.34314575 330.313014,3 C330.313014,4.59768088 329.064094,5.90366088 327.489286,5.99490731 L327.313014,6 L3,6 C1.34314575,6 -2.27373675e-13,4.65685425 -2.27373675e-13,3 C-2.27373675e-13,1.40231912 1.24891996,0.0963391206 2.82372721,0.00509269341 L3,0 L327.313014,0 Z" fill="inherit" filter="url(#b)" transform="translate(17.857 19.912)"/><path d="M327.313014,0 C328.969868,0 330.313014,1.34314575 330.313014,3 C330.313014,4.59768088 329.064094,5.90366088 327.489286,5.99490731 L327.313014,6 L3,6 C1.34314575,6 -2.27373675e-13,4.65685425 -2.27373675e-13,3 C-2.27373675e-13,1.40231912 1.24891996,0.0963391206 2.82372721,0.00509269341 L3,0 L327.313014,0 Z" fill="inherit" transform="translate(17.857 19.912)"/></g></g></g></svg>